<svg xmlns="http://www.w3.org/2000/svg" viewBox="328 226 380 302">
  <path fill="#fff" d="M536.275 304.181C542.665 303.563 556.881 303.995 563.671 304.094C570.944 315.507 578.271 329.786 584.909 341.889L617.077 399.875L662.546 481.558C669.535 494.206 678.988 510.332 685.193 523.016L657.853 522.977C645.077 499.003 630.647 474.508 617.247 450.775L568.322 362.995L547.863 326.732C545.334 322.228 537.436 308.461 536.275 304.181Z"/>
  <path fill="#fff" d="M463.632 303.589C471.326 304.066 481.625 304.167 489.336 303.816C474.336 329.358 459.226 357.814 444.749 383.812L395.798 470.5L374.835 507.74C373.121 510.76 367.615 521.111 365.825 522.842C357.061 522.927 348.296 522.949 339.531 522.908C350.507 501.138 363.231 479.493 375.044 458.107C393.311 424.829 411.76 391.651 430.39 358.575C440.505 340.896 449.785 322.705 460.206 305.186C461.019 303.82 462.226 303.892 463.632 303.589Z"/>
  <path fill="#fff" d="M450.193 404.467C461.782 403.88 478.518 404.481 490.576 404.486L573.664 404.508C577.159 410.331 584.676 425.027 587.167 430.967C582.151 431.137 576.91 431.058 571.875 431.057C526.389 430.705 480.842 431.531 435.493 431.432C440.196 422.195 445.335 413.571 450.193 404.467Z"/>
  <path fill="#fff" d="M443.169 266.33C449.034 265.758 457.131 265.993 463.097 266.024L490.404 266.034C520.92 265.776 551.439 265.826 581.954 266.186C581.921 273.799 581.955 281.413 582.058 289.025L489.498 289.016C474.955 289.018 457.239 288.576 442.966 289.174C442.901 283.641 442.524 271.448 443.169 266.33Z"/>
  <path fill="#fff" d="M498.595 233.241C507.4 233.733 519.6 233.502 528.734 233.602C528.787 237.196 529.254 250.065 528.199 252.609L527.106 252.657L495.428 252.678C495.588 246.441 495.385 240.296 495.63 234.021C496.59 233.122 496.932 233.402 498.595 233.241Z"/>
</svg>
